<?xml version="1.0" encoding="utf-8"?>
<!-- Generator: Adobe Illustrator 19.1.0, SVG Export Plug-In . SVG Version: 6.00 Build 0)  -->
<!DOCTYPE svg PUBLIC "-//W3C//DTD SVG 1.1//EN" "http://www.w3.org/Graphics/SVG/1.1/DTD/svg11.dtd">
<svg version="1.1" id="Layer_1" xmlns="http://www.w3.org/2000/svg" xmlns:xlink="http://www.w3.org/1999/xlink" x="0px" y="0px"
	 viewBox="0 0 128 128" style="enable-background:new 0 0 128 128;" xml:space="preserve">
<style type="text/css">
	.st0{opacity:0.6;fill:#D1D1D1;}
	.st1{fill:#282828;}
	.st2{fill:#161616;}
	.st3{fill:#FFFFFF;}
</style>
<path class="st0" d="M120.7,128H12.9c-4,0-7.3-3.2-7.3-7.3V12.9c0-4,3.2-7.3,7.3-7.3h107.9c4,0,7.3,3.2,7.3,7.3v107.9
	C128,124.8,124.8,128,120.7,128z"/>
<path class="st1" d="M116.3,122.4H6.1c-3.4,0-6.1-2.7-6.1-6.1V6.1C0,2.7,2.7,0,6.1,0h110.1c3.4,0,6.1,2.7,6.1,6.1v110.1
	C122.4,119.6,119.6,122.4,116.3,122.4z"/>
<g>
	<path class="st2" d="M0,84.6v31.6c0,3.4,3,6.1,6.4,6.1h110.1c3.4,0,5.8-2.8,5.8-6.2V45.5L0,84.6z"/>
</g>
<g>
	<path class="st3" d="M14,33.9h3.3v7.4h7.5v-7.4H28v18.5h-3.3v-8.2h-7.5v8.2H14V33.9z"/>
	<path class="st3" d="M41.2,47.4H35l-1.4,5h-3.4l6.1-18.5h3.8l6,18.5h-3.5L41.2,47.4z M40.5,44.9l-0.7-2.3c-0.6-2-1.1-4.1-1.7-6.1
		H38c-0.5,2.1-1,4.2-1.6,6.1l-0.7,2.3H40.5z"/>
	<path class="st3" d="M55.6,33.6c2.3,0,4.1,1.1,5.3,2.3l-1.8,2c-1-0.9-2-1.5-3.4-1.5c-3,0-5.2,2.5-5.2,6.7c0,4.2,2,6.8,5.1,6.8
		c1.6,0,2.9-0.7,3.9-1.8l1.8,2c-1.5,1.7-3.4,2.7-5.8,2.7c-4.7,0-8.4-3.4-8.4-9.5C47.1,37.2,50.9,33.6,55.6,33.6z"/>
	<path class="st3" d="M64.3,33.9h3.3v8.4h0.1l6.6-8.4h3.6l-5.7,7.2l6.7,11.3h-3.6l-5-8.7l-2.7,3.3v5.4h-3.3V33.9z"/>
	<path class="st3" d="M81.1,33.9h11.1v2.8h-7.8v4.7H91v2.8h-6.7v5.5h8.1v2.8H81.1V33.9z"/>
	<path class="st3" d="M106.3,52.5l-4-7.2h-2.8v7.2h-3.3V33.9h6.2c3.8,0,6.8,1.4,6.8,5.5c0,2.8-1.5,4.5-3.7,5.3l4.4,7.7H106.3z
		 M99.5,42.6h2.6c2.5,0,3.9-1.1,3.9-3.2c0-2.1-1.4-2.9-3.9-2.9h-2.6V42.6z"/>
	<path class="st3" d="M21.4,81.8c1.3,1.2,3.1,2.1,4.8,2.1c2.1,0,3.2-0.9,3.2-2.4c0-1.5-1.2-2-2.9-2.7l-2.5-1.1
		c-1.8-0.8-3.7-2.2-3.7-4.9c0-2.9,2.6-5.2,6.2-5.2c2.2,0,4.3,0.9,5.7,2.3L30.6,72c-1.2-1-2.4-1.6-4-1.6c-1.8,0-2.9,0.8-2.9,2.2
		c0,1.4,1.4,2,2.9,2.6l2.5,1c2.2,0.9,3.7,2.3,3.7,5c0,3-2.5,5.5-6.7,5.5c-2.5,0-4.9-1-6.7-2.7L21.4,81.8z"/>
	<path class="st3" d="M36.1,67.9h3.3v15.7h7.7v2.8h-11V67.9z"/>
	<path class="st3" d="M50.3,67.9h3.3v18.5h-3.3V67.9z"/>
	<path class="st3" d="M58.2,67.9h4.9c5.7,0,9,3.1,9,9.2c0,6.1-3.4,9.3-8.9,9.3h-5.1V67.9z M62.9,83.8c3.7,0,5.9-2.1,5.9-6.7
		c0-4.5-2.2-6.5-5.9-6.5h-1.4v13.2H62.9z"/>
	<path class="st3" d="M75.8,67.9h11.1v2.8h-7.8v4.7h6.7v2.8h-6.7v5.5h8.1v2.8H75.8V67.9z"/>
	<path class="st3" d="M91.5,81.8c1.3,1.2,3.1,2.1,4.8,2.1c2.1,0,3.2-0.9,3.2-2.4c0-1.5-1.2-2-2.9-2.7l-2.5-1.1
		c-1.8-0.8-3.7-2.2-3.7-4.9c0-2.9,2.6-5.2,6.2-5.2c2.2,0,4.3,0.9,5.7,2.3l-1.7,2.1c-1.2-1-2.4-1.6-4-1.6c-1.8,0-2.9,0.8-2.9,2.2
		c0,1.4,1.4,2,2.9,2.6l2.5,1c2.2,0.9,3.7,2.3,3.7,5c0,3-2.5,5.5-6.7,5.5c-2.5,0-4.9-1-6.7-2.7L91.5,81.8z"/>
</g>
</svg>
