<?xml version="1.0" encoding="utf-8"?>
<!-- Generator: Adobe Illustrator 19.1.0, SVG Export Plug-In . SVG Version: 6.00 Build 0)  -->
<!DOCTYPE svg PUBLIC "-//W3C//DTD SVG 1.1//EN" "http://www.w3.org/Graphics/SVG/1.1/DTD/svg11.dtd">
<svg version="1.1" id="Layer_1" xmlns="http://www.w3.org/2000/svg" xmlns:xlink="http://www.w3.org/1999/xlink" x="0px" y="0px"
	 viewBox="0 0 150 150" style="enable-background:new 0 0 150 150;" xml:space="preserve">
<style type="text/css">
	.st0{fill:#282828;}
	.st1{fill:#161616;}
	.st2{fill:#FFFFFF;}
</style>
<rect x="0" y="0.1" class="st0" width="150" height="150"/>
<g>
	<path class="st1" d="M0,103.9v45.9c0,0.2,0.1,0.3,0.3,0.3H150V55.9L0,103.9z"/>
</g>
<g>
	<path class="st2" d="M17.1,41.7h4v9.1h9.2v-9.1h4v22.7h-4V54.3h-9.2v10.1h-4V41.7z"/>
	<path class="st2" d="M50.5,58.3h-7.6l-1.8,6.1H37l7.4-22.7h4.7l7.4,22.7h-4.3L50.5,58.3z M49.6,55.1l-0.8-2.8c-0.7-2.4-1.4-5-2-7.5
		h-0.1c-0.6,2.5-1.3,5.1-2,7.5l-0.8,2.8H49.6z"/>
	<path class="st2" d="M68.2,41.3c2.8,0,5,1.4,6.5,2.9l-2.2,2.5c-1.2-1.1-2.5-1.9-4.2-1.9c-3.7,0-6.4,3.1-6.4,8.2
		c0,5.2,2.5,8.3,6.2,8.3c2,0,3.5-0.8,4.8-2.3l2.2,2.5c-1.8,2.1-4.2,3.3-7.1,3.3c-5.8,0-10.3-4.2-10.3-11.7
		C57.7,45.7,62.3,41.3,68.2,41.3z"/>
	<path class="st2" d="M78.8,41.7h4V52h0.1L91,41.7h4.4l-7,8.8l8.2,13.8h-4.4l-6.1-10.7l-3.3,4.1v6.6h-4V41.7z"/>
	<path class="st2" d="M99.4,41.7H113v3.4h-9.6v5.8h8.2v3.4h-8.2V61h10v3.4h-14V41.7z"/>
	<path class="st2" d="M130.3,64.4l-4.9-8.9h-3.4v8.9h-4V41.7h7.6c4.7,0,8.4,1.7,8.4,6.7c0,3.5-1.8,5.6-4.5,6.5l5.4,9.5H130.3z
		 M121.9,52.3h3.2c3.1,0,4.8-1.3,4.8-3.9c0-2.6-1.7-3.5-4.8-3.5h-3.2V52.3z"/>
	<path class="st2" d="M26.3,100.4c1.6,1.5,3.8,2.6,5.9,2.6c2.5,0,4-1.1,4-2.9c0-1.9-1.5-2.5-3.5-3.3l-3.1-1.4
		c-2.3-0.9-4.6-2.7-4.6-6c0-3.6,3.2-6.4,7.6-6.4c2.7,0,5.2,1.1,7,2.9l-2.1,2.6c-1.4-1.2-3-1.9-4.9-1.9c-2.2,0-3.5,1-3.5,2.7
		c0,1.8,1.7,2.4,3.6,3.2l3.1,1.3c2.7,1.1,4.6,2.8,4.6,6.1c0,3.7-3.1,6.7-8.2,6.7c-3.1,0-6-1.2-8.2-3.3L26.3,100.4z"/>
	<path class="st2" d="M44.3,83.3h4v19.3h9.4v3.4H44.3V83.3z"/>
	<path class="st2" d="M61.6,83.3h4V106h-4V83.3z"/>
	<path class="st2" d="M71.3,83.3h6c6.9,0,11.1,3.7,11.1,11.2c0,7.5-4.1,11.4-10.9,11.4h-6.2V83.3z M77,102.8c4.6,0,7.2-2.6,7.2-8.2
		c0-5.6-2.6-8-7.2-8h-1.7v16.2H77z"/>
	<path class="st2" d="M92.9,83.3h13.6v3.4h-9.6v5.8h8.2v3.4h-8.2v6.7h10v3.4h-14V83.3z"/>
	<path class="st2" d="M112.2,100.4c1.6,1.5,3.8,2.6,5.9,2.6c2.5,0,4-1.1,4-2.9c0-1.9-1.5-2.5-3.5-3.3l-3.1-1.4
		c-2.3-0.9-4.6-2.7-4.6-6c0-3.6,3.2-6.4,7.6-6.4c2.7,0,5.2,1.1,7,2.9l-2.1,2.6c-1.4-1.2-3-1.9-4.9-1.9c-2.2,0-3.5,1-3.5,2.7
		c0,1.8,1.7,2.4,3.6,3.2l3.1,1.3c2.7,1.1,4.6,2.8,4.6,6.1c0,3.7-3.1,6.7-8.2,6.7c-3.1,0-6-1.2-8.2-3.3L112.2,100.4z"/>
</g>
</svg>
