<?xml version="1.0" encoding="utf-8"?>
<!-- Generator: Adobe Illustrator 19.1.0, SVG Export Plug-In . SVG Version: 6.00 Build 0)  -->
<!DOCTYPE svg PUBLIC "-//W3C//DTD SVG 1.1//EN" "http://www.w3.org/Graphics/SVG/1.1/DTD/svg11.dtd">
<svg version="1.1" id="Layer_1" xmlns="http://www.w3.org/2000/svg" xmlns:xlink="http://www.w3.org/1999/xlink" x="0px" y="0px"
	 viewBox="0 0 24 24" style="enable-background:new 0 0 24 24;" xml:space="preserve">
<style type="text/css">
	.st0{fill:#FFFFFF;}
</style>
<g>
	<path class="st0" d="M0.8,5h2.4v5.5h5.5V5h2.4v13.6H8.7v-6H3.3v6H0.8V5z"/>
	<path class="st0" d="M15,15.2c1,0.9,2.3,1.5,3.6,1.5c1.5,0,2.4-0.7,2.4-1.7c0-1.1-0.9-1.5-2.1-2L17,12.2c-1.4-0.6-2.7-1.6-2.7-3.6
		c0-2.2,1.9-3.8,4.6-3.8c1.6,0,3.1,0.7,4.2,1.7L21.7,8c-0.9-0.7-1.8-1.2-3-1.2c-1.3,0-2.1,0.6-2.1,1.6c0,1.1,1,1.5,2.2,1.9l1.8,0.8
		c1.6,0.7,2.7,1.7,2.7,3.7c0,2.2-1.8,4-4.9,4c-1.8,0-3.6-0.7-4.9-2L15,15.2z"/>
</g>
</svg>
