<?xml version="1.0" encoding="UTF-8" standalone="no"?>
<!-- Generator: Adobe Illustrator 19.1.0, SVG Export Plug-In . SVG Version: 6.00 Build 0)  -->

<svg
   xmlns:dc="http://purl.org/dc/elements/1.1/"
   xmlns:cc="http://creativecommons.org/ns#"
   xmlns:rdf="http://www.w3.org/1999/02/22-rdf-syntax-ns#"
   xmlns:svg="http://www.w3.org/2000/svg"
   xmlns="http://www.w3.org/2000/svg"
   xmlns:sodipodi="http://sodipodi.sourceforge.net/DTD/sodipodi-0.dtd"
   xmlns:inkscape="http://www.inkscape.org/namespaces/inkscape"
   version="1.1"
   id="Layer_1"
   x="0px"
   y="0px"
   viewBox="0 0 24 24"
   style="enable-background:new 0 0 24 24;"
   xml:space="preserve"
   inkscape:version="0.48.5 r10040"
   width="100%"
   height="100%"
   sodipodi:docname="hackerslides-24.svg"><metadata
     id="metadata15"><rdf:RDF><cc:Work
         rdf:about=""><dc:format>image/svg+xml</dc:format><dc:type
           rdf:resource="http://purl.org/dc/dcmitype/StillImage" /></cc:Work></rdf:RDF></metadata><defs
     id="defs13" /><sodipodi:namedview
     pagecolor="#ffffff"
     bordercolor="#666666"
     borderopacity="1"
     objecttolerance="10"
     gridtolerance="10"
     guidetolerance="10"
     inkscape:pageopacity="0"
     inkscape:pageshadow="2"
     inkscape:window-width="1596"
     inkscape:window-height="878"
     id="namedview11"
     showgrid="false"
     inkscape:snap-bbox="true"
     inkscape:bbox-paths="true"
     inkscape:bbox-nodes="true"
     inkscape:snap-page="true"
     inkscape:zoom="9.8333333"
     inkscape:cx="-4.8305085"
     inkscape:cy="12"
     inkscape:window-x="0"
     inkscape:window-y="18"
     inkscape:window-maximized="0"
     inkscape:current-layer="layer1" /><style
     type="text/css"
     id="style3">
	.st0{fill:#FFFFFF;}
</style><g
     inkscape:groupmode="layer"
     id="layer1"
     inkscape:label="background"><rect
       style="fill:#000000"
       id="rect3761"
       width="24"
       height="24"
       x="2.5331974e-07"
       y="-2.3841858e-07"
       ry="0" /></g><g
     id="g5"><path
       class="st0"
       d="M0.8,5h2.4v5.5h5.5V5h2.4v13.6H8.7v-6H3.3v6H0.8V5z"
       id="path7" /><path
       class="st0"
       d="M15,15.2c1,0.9,2.3,1.5,3.6,1.5c1.5,0,2.4-0.7,2.4-1.7c0-1.1-0.9-1.5-2.1-2L17,12.2c-1.4-0.6-2.7-1.6-2.7-3.6   c0-2.2,1.9-3.8,4.6-3.8c1.6,0,3.1,0.7,4.2,1.7L21.7,8c-0.9-0.7-1.8-1.2-3-1.2c-1.3,0-2.1,0.6-2.1,1.6c0,1.1,1,1.5,2.2,1.9l1.8,0.8   c1.6,0.7,2.7,1.7,2.7,3.7c0,2.2-1.8,4-4.9,4c-1.8,0-3.6-0.7-4.9-2L15,15.2z"
       id="path9" /></g></svg>